<?xml version="1.0" encoding="utf-8"?>
<!-- Generator: Adobe Illustrator 21.1.0, SVG Export Plug-In . SVG Version: 6.00 Build 0)  -->
<svg version="1.1" id="Layer_1" xmlns="http://www.w3.org/2000/svg" xmlns:xlink="http://www.w3.org/1999/xlink" x="0px" y="0px"
	 viewBox="0 0 73.8 24.8" style="enable-background:new 0 0 73.8 24.8;" xml:space="preserve">
<style type="text/css">
	.st0{fill:#FFFFFF;}
</style>
<g id="PJca">
	<path d="M26.1,23.8l5.6-18.9c0-0.2,0.2-0.3,0.4-0.3c0.2,0,1.9,0,2.6,0c0.3,0,0.2,0.3,0.2,0.3l-0.4,1c1.1-0.9,2.3-1.2,3-1.2
		c3.4,0,4.2,2.7,4.1,4.7c0,0.8-0.5,2-1.1,3.1c0.6-0.5,1.2-1,1.6-1.3c2.6-2.2,3.4-4.8,3.7-5.6L45.9,5c0.1-0.2,0.3-0.4,0.5-0.4h2.3
		c0.4,0,0.3,0.3,0.3,0.3l-2.9,9.7v0c-0.1,0.5-0.3,1-0.4,1.5c-1.4,5.7-2.8,8.4-6.9,8.4c-1.6,0-3.9-0.6-3.9-3.2c0-2.2,1.9-4.4,8.3-6.1
		c0.1-0.5,0.3-0.9,0.4-1.4l0.7-2.2c-2.6,2.4-6.9,4.7-8.2,4.9h0c-0.6,0.2-1.2,0.3-1.8,0.3c-1,0-2-0.1-3-0.4c-0.3,1.1-0.7,2.3-0.9,3.4
		c-0.3,1.3-0.8,2.8-1.2,4.1c0,0.1-0.1,0.2-0.4,0.2h-2.6C26,24.1,26.1,23.8,26.1,23.8 M37,6.8c-1.6,0-3.2,1.7-3.5,2.3l0,0l-0.8,2.6
		l-0.5,1.7l-0.3,1.2c0.8,0.2,1.5,0.3,2.3,0.3c2.7,0,4.2-3,4.3-5.3C38.5,8,38.2,6.8,37,6.8 M39.1,22.3c2.2,0,2.6-2.2,3.4-4.8l0.1-0.4
		c-1.6,0.4-2.8,0.8-3.6,1.3C36.9,19.5,37.3,22.3,39.1,22.3"/>
	<path d="M48.4,0.8c-0.8,0-1.4,0.6-1.4,1.3c0,0,0,0,0,0c0,0.8,0.6,1.4,1.4,1.4s1.4-0.6,1.4-1.4C49.8,1.4,49.2,0.8,48.4,0.8
		C48.4,0.8,48.4,0.8,48.4,0.8z"/>
	<path d="M47.4,22.6h0.3v1.4h-0.2v-1.3L47.5,23l-0.4,1.1H47L46.6,23l-0.1-0.2v1.3h-0.2v-1.4h0.3l0.3,1l0.1,0.2l0.1-0.2L47.4,22.6z"
		/>
	<path d="M49.1,23.6c-0.1,0.3-0.3,0.5-0.6,0.5c-0.4,0-0.6-0.3-0.6-0.7s0.3-0.7,0.6-0.7c0.3,0,0.5,0.2,0.6,0.4l-0.2,0
		c0-0.2-0.2-0.3-0.4-0.3c-0.3,0-0.5,0.2-0.5,0.6c0,0.4,0.2,0.6,0.5,0.6c0.2,0,0.4-0.2,0.4-0.4L49.1,23.6z"/>
	<path d="M50.2,15.5c0,0.7-0.5,1.2-1.2,1.2c-0.7,0-1.2-0.5-1.2-1.2c0-0.7,0.5-1.2,1.2-1.2h0C49.6,14.3,50.1,14.9,50.2,15.5z"/>
	<path d="M61.8,12.5c-0.5,2.3-2.4,4.2-5.4,4.2c-3.4,0-5.7-2.5-5.7-6.1c0-3.5,2.4-6.1,5.8-6.1c2.8,0,4.7,1.5,5.4,4l-2.5,0.5
		c-0.5-1.5-1.5-2.2-2.8-2.2c-1.6,0-3.1,1.2-3.1,3.8s1.5,3.8,3.1,3.8c1.4,0,2.5-1,2.9-2.4L61.8,12.5z"/>
	<path d="M70.2,14.8c-0.9,1.3-2.4,2-4,2c-2.1,0-3.6-1.2-3.6-3.1c0-1.9,1.3-3,4.2-3.6l3.4-0.8V9.1c0-1.5-0.8-2.3-2.3-2.3
		c-1.4,0-2.3,0.7-2.8,1.9L62.8,8c0.8-2.1,2.8-3.3,5.3-3.3c3.2,0,4.9,1.7,4.9,4.3v6c0,0.4,0,1.2,0.1,1.6h-2.8
		C70.2,16,70.2,15.4,70.2,14.8z M67.1,14.8c1.2,0,2.7-0.8,3.1-2.1v-1.6l-3,0.7c-1.3,0.3-1.9,0.8-1.9,1.6
		C65.3,14.2,66,14.8,67.1,14.8z"/>
	<path d="M17.8,24.3c-5.2,2.4-14.5-4.3-17-9.5S1.4,4.5,6.6,2c1.7-0.8,3.5-1.2,5.3-1.2c3.4,0,6.6,1.6,8.2,5.1
		C22.6,11,23,21.8,17.8,24.3z"/>
	<path class="st0" d="M6.1,6.2h3.3c1.1,0,3,0.2,4,2.2l4.9,10.4c-0.5,0.5-1.3,0.5-1.8,0c0,0-0.1-0.1-0.1-0.2l-4.2-6
		c-0.6-0.9-1.8-1.1-2.7-0.5c-0.1,0-0.1,0.1-0.2,0.2l-1.2,1.1c-0.5,0.5-1.3,0.5-1.8,0l-0.1-0.1l1.1-1.5C8,10.7,8.1,9.3,7.4,8.2
		L6.1,6.2z M8,17.1c-0.2,0.3-0.2,0.6-0.2,1c0,0.7,0.9,1.3,0.9,1.3l3.1-5.3c0.1-0.3,0.1-0.6,0-0.8c-0.7-1-1.6-0.7-1.6-0.7L8,17.1z"/>
</g>
</svg>
